<?xml version="1.0" standalone="no"?>
<!DOCTYPE svg PUBLIC "-//W3C//DTD SVG 20010904//EN"
 "http://www.w3.org/TR/2001/REC-SVG-20010904/DTD/svg10.dtd">
<svg version="1.0" xmlns="http://www.w3.org/2000/svg"
 width="512.000000pt" height="512.000000pt" viewBox="0 0 512.000000 512.000000"
 preserveAspectRatio="xMidYMid meet">
<metadata>
Created by potrace 1.16, written by Peter Selinger 2001-2019
</metadata>
<g transform="translate(0.000000,512.000000) scale(0.100000,-0.100000)"
fill="#000000" stroke="none">
<path d="M2260 4630 c0 -6 -27 -10 -60 -10 -33 0 -60 -4 -60 -10 0 -6 -30 -10
-70 -10 -40 0 -70 -4 -70 -10 0 -5 -13 -10 -30 -10 -16 0 -30 -4 -30 -10 0 -5
-13 -10 -30 -10 -16 0 -30 -4 -30 -10 0 -5 -13 -10 -30 -10 -16 0 -30 -4 -30
-10 0 -5 -9 -10 -20 -10 -11 0 -20 -4 -20 -10 0 -5 -9 -10 -20 -10 -11 0 -20
-4 -20 -10 0 -5 -9 -10 -20 -10 -11 0 -20 -4 -20 -10 0 -5 -13 -10 -30 -10
-16 0 -30 -4 -30 -10 0 -5 -8 -10 -18 -10 -10 0 -24 -9 -32 -20 -8 -11 -21
-20 -28 -20 -8 0 -27 -13 -42 -30 -15 -16 -35 -30 -44 -30 -9 0 -16 -4 -16
-10 0 -5 -9 -10 -20 -10 -11 0 -20 -4 -20 -10 0 -5 -8 -10 -18 -10 -10 0 -24
-9 -32 -20 -8 -11 -21 -20 -28 -20 -7 0 -31 -18 -52 -40 -21 -22 -44 -40 -50
-40 -6 0 -29 -18 -50 -40 -21 -22 -44 -40 -50 -40 -19 0 -40 -27 -40 -50 0
-12 -13 -35 -30 -50 -16 -15 -30 -33 -30 -40 0 -7 -13 -25 -30 -40 -16 -15
-30 -33 -30 -40 0 -7 -13 -25 -30 -40 -16 -15 -30 -34 -30 -42 0 -7 -9 -20
-20 -28 -11 -8 -20 -22 -20 -32 0 -10 -4 -18 -10 -18 -5 0 -10 -8 -10 -18 0
-10 -9 -24 -20 -32 -12 -8 -20 -26 -20 -42 0 -15 -4 -28 -10 -28 -5 0 -10 -7
-10 -16 0 -9 -13 -29 -30 -44 -16 -15 -30 -35 -30 -44 0 -9 -4 -16 -10 -16 -5
0 -10 -9 -10 -20 0 -11 -4 -20 -10 -20 -5 0 -10 -9 -10 -20 0 -11 -4 -20 -10
-20 -5 0 -10 -13 -10 -30 0 -16 -4 -30 -10 -30 -5 0 -10 -9 -10 -20 0 -11 -4
-20 -10 -20 -5 0 -10 -9 -10 -20 0 -11 -4 -20 -10 -20 -5 0 -10 -22 -10 -50 0
-27 -4 -50 -10 -50 -6 0 -10 -27 -10 -60 0 -33 -4 -60 -10 -60 -5 0 -10 -18
-10 -40 0 -22 -4 -40 -10 -40 -5 0 -10 -18 -10 -40 0 -22 -4 -40 -10 -40 -5 0
-10 -9 -10 -20 0 -11 -4 -20 -10 -20 -6 0 -10 -90 -10 -250 0 -160 4 -250 10
-250 6 0 10 -22 10 -50 0 -27 5 -50 10 -50 6 0 10 -22 10 -50 0 -27 5 -50 10
-50 6 0 10 -18 10 -40 0 -22 5 -40 10 -40 6 0 10 -9 10 -20 0 -11 5 -20 10
-20 6 0 10 -22 10 -50 0 -27 5 -50 10 -50 6 0 10 -18 10 -40 0 -22 5 -40 10
-40 6 0 10 -13 10 -28 0 -16 8 -34 20 -42 11 -8 20 -22 20 -32 0 -10 5 -18 10
-18 6 0 10 -9 10 -20 0 -11 5 -20 10 -20 6 0 10 -13 10 -30 0 -16 5 -30 10
-30 6 0 10 -9 10 -20 0 -11 5 -20 10 -20 6 0 10 -9 10 -20 0 -11 5 -20 10 -20
6 0 10 -9 10 -20 0 -11 5 -20 10 -20 6 0 10 -13 10 -30 0 -16 5 -30 10 -30 6
0 10 -9 10 -20 0 -11 5 -20 10 -20 6 0 10 -9 10 -20 0 -11 5 -20 10 -20 6 0
10 -9 10 -20 0 -11 5 -20 10 -20 6 0 10 -8 10 -18 0 -10 9 -24 20 -32 11 -8
20 -21 20 -30 0 -9 9 -22 20 -30 11 -8 20 -22 20 -32 0 -10 5 -18 10 -18 6 0
10 -7 10 -15 0 -18 44 -65 61 -65 6 0 24 -13 39 -30 15 -16 33 -30 40 -30 7 0
25 -14 40 -30 15 -16 34 -30 42 -30 7 0 20 -9 28 -20 8 -11 21 -20 28 -20 8 0
27 -13 42 -30 15 -16 33 -30 39 -30 7 0 43 -32 81 -70 50 -50 76 -70 95 -70
14 0 25 -4 25 -10 0 -5 9 -10 20 -10 11 0 20 -4 20 -10 0 -5 14 -10 30 -10 17
0 30 -4 30 -10 0 -5 18 -10 40 -10 22 0 40 -4 40 -10 0 -5 14 -10 30 -10 17 0
30 -4 30 -10 0 -5 9 -10 20 -10 11 0 20 -4 20 -10 0 -5 14 -10 30 -10 17 0 30
-4 30 -10 0 -5 9 -10 20 -10 11 0 20 -4 20 -10 0 -6 30 -10 70 -10 40 0 70 -4
70 -10 0 -6 57 -10 150 -10 93 0 150 -4 150 -10 0 -5 18 -10 40 -10 22 0 40
-4 40 -10 0 -6 33 -10 80 -10 47 0 80 -4 80 -10 0 -6 97 -10 270 -10 173 0
270 4 270 10 0 6 18 10 40 10 22 0 40 5 40 10 0 6 18 10 40 10 22 0 40 5 40
10 0 6 14 10 30 10 17 0 30 5 30 10 0 6 14 10 30 10 17 0 30 5 30 10 0 6 9 10
20 10 11 0 20 5 20 10 0 6 9 10 20 10 11 0 20 5 20 10 0 6 8 10 18 10 10 0 24
9 32 20 8 11 21 20 28 20 7 0 31 18 52 40 21 22 43 40 49 40 17 0 101 87 101
105 0 8 8 15 18 15 10 0 24 9 32 20 8 11 20 20 27 20 16 0 143 125 143 141 0
6 18 28 40 49 22 21 40 45 40 52 0 7 9 20 20 28 11 8 20 21 20 28 0 8 14 27
30 42 17 15 30 35 30 44 0 9 5 16 10 16 6 0 10 9 10 20 0 11 5 20 10 20 6 0
10 9 10 20 0 11 5 20 10 20 6 0 10 9 10 20 0 11 5 20 10 20 6 0 10 8 10 18 0
10 9 24 20 32 11 8 20 22 20 32 0 10 5 18 10 18 6 0 10 9 10 20 0 11 5 20 10
20 6 0 10 9 10 20 0 11 5 20 10 20 6 0 10 14 10 30 0 17 5 30 10 30 6 0 10 14
10 30 0 17 5 30 10 30 6 0 10 9 10 20 0 11 5 20 10 20 6 0 10 14 10 30 0 17 5
30 10 30 6 0 10 18 10 40 0 22 5 40 10 40 6 0 10 9 10 20 0 11 5 20 10 20 6 0
10 23 10 50 0 28 5 50 10 50 6 0 10 9 10 20 0 11 5 20 10 20 6 0 10 33 10 80
0 47 4 80 10 80 6 0 10 50 10 130 0 80 4 130 10 130 6 0 10 70 10 190 0 120
-4 190 -10 190 -6 0 -10 27 -10 60 0 33 -4 60 -10 60 -5 0 -10 14 -10 30 0 17
-4 30 -10 30 -5 0 -10 18 -10 39 0 22 -5 42 -12 44 -10 4 -9 8 2 17 11 9 12
13 3 17 -7 2 -13 13 -13 24 0 10 -4 19 -10 19 -5 0 -10 8 -10 18 0 10 -9 24
-20 32 -12 8 -20 26 -20 42 0 15 -4 28 -10 28 -5 0 -10 14 -10 30 0 17 -4 30
-10 30 -5 0 -10 9 -10 20 0 11 -4 20 -10 20 -5 0 -10 8 -10 18 0 10 -9 24 -20
32 -11 8 -20 22 -20 32 0 10 -4 18 -10 18 -5 0 -10 8 -10 18 0 10 -9 24 -20
32 -11 8 -20 22 -20 32 0 10 -4 18 -10 18 -5 0 -10 9 -10 20 0 11 -4 20 -10
20 -5 0 -10 14 -10 30 0 17 -4 30 -10 30 -5 0 -10 9 -10 20 0 11 -4 20 -10 20
-5 0 -10 8 -10 18 0 10 -9 24 -20 32 -11 8 -20 21 -20 30 0 9 -9 22 -20 30
-11 8 -20 21 -20 30 0 9 -9 22 -20 30 -11 8 -20 21 -20 28 0 8 -13 27 -30 42
-16 15 -30 33 -30 39 0 7 -31 43 -70 81 -38 38 -70 74 -70 80 0 15 -107 120
-123 120 -7 0 -19 9 -27 20 -8 11 -22 20 -32 20 -10 0 -18 5 -18 10 0 6 -8 10
-18 10 -10 0 -24 9 -32 20 -8 11 -21 20 -30 20 -9 0 -22 9 -30 20 -8 11 -22
20 -32 20 -10 0 -18 5 -18 10 0 6 -9 10 -20 10 -11 0 -20 5 -20 10 0 6 -13 10
-28 10 -16 0 -34 8 -42 20 -8 12 -26 20 -42 20 -15 0 -28 5 -28 10 0 6 -22 10
-50 10 -27 0 -50 5 -50 10 0 6 -27 10 -60 10 -33 0 -60 4 -60 10 0 6 -22 10
-50 10 -27 0 -50 5 -50 10 0 6 -133 10 -380 10 -247 0 -380 -4 -380 -10z m840
-1520 c0 -6 30 -10 70 -10 40 0 70 -4 70 -10 0 -5 7 -10 16 -10 18 0 44 -23
44 -40 0 -20 28 -40 54 -40 24 0 26 -4 26 -40 0 -22 5 -40 10 -40 6 0 10 -9
10 -20 0 -11 5 -20 10 -20 6 0 10 -9 10 -20 0 -11 5 -20 10 -20 6 0 10 -9 10
-20 0 -11 5 -20 10 -20 6 0 10 -9 10 -20 0 -11 -4 -20 -10 -20 -5 0 -10 -9
-10 -20 0 -19 -7 -20 -120 -20 -73 0 -120 -4 -120 -10 0 -6 -27 -10 -60 -10
-33 0 -60 -4 -60 -10 0 -5 -18 -10 -40 -10 -22 0 -40 -4 -40 -10 0 -5 -13 -10
-30 -10 -16 0 -30 -4 -30 -10 0 -5 -4 -10 -10 -10 -5 0 -10 23 -10 50 0 28 5
50 10 50 6 0 10 40 10 100 0 60 4 100 10 100 6 0 10 9 10 20 0 11 5 20 10 20
6 0 10 7 10 16 0 9 14 29 30 44 17 15 30 35 30 44 0 9 8 16 20 16 11 0 20 5
20 10 0 6 5 10 10 10 6 0 10 -4 10 -10z m-1120 -60 c0 -6 27 -10 60 -10 33 0
60 -4 60 -10 0 -5 14 -10 30 -10 17 0 30 -4 30 -10 0 -5 9 -10 20 -10 11 0 20
-4 20 -10 0 -5 9 -10 20 -10 11 0 20 -4 20 -10 0 -5 8 -10 18 -10 10 0 24 -9
32 -20 8 -11 20 -20 28 -20 18 0 42 -25 42 -44 0 -9 5 -16 10 -16 6 0 10 -13
10 -30 0 -16 5 -30 10 -30 6 0 10 -30 10 -70 0 -40 -4 -70 -10 -70 -5 0 -10
-13 -10 -30 0 -29 -1 -30 -50 -30 -27 0 -50 5 -50 10 0 6 -67 10 -180 10 -113
0 -180 -4 -180 -10 0 -6 -30 -10 -70 -10 -40 0 -70 -4 -70 -10 0 -5 -13 -10
-30 -10 -16 0 -30 -4 -30 -10 0 -5 -4 -10 -10 -10 -6 0 -10 43 -10 110 0 67 4
110 10 110 6 0 10 14 10 30 0 17 5 30 10 30 6 0 10 9 10 20 0 11 5 20 10 20 6
0 10 7 10 15 0 18 44 65 60 65 7 0 29 18 50 40 21 22 46 40 54 40 9 0 16 5 16
10 0 6 9 10 20 10 11 0 20 -4 20 -10z m2440 -650 c0 -33 -4 -60 -10 -60 -6 0
-10 -33 -10 -80 0 -47 -4 -80 -10 -80 -5 0 -10 -13 -10 -30 0 -16 -4 -30 -10
-30 -5 0 -10 -22 -10 -50 0 -27 -4 -50 -10 -50 -5 0 -10 -9 -10 -20 0 -11 -4
-20 -10 -20 -5 0 -10 -18 -10 -40 0 -22 -4 -40 -10 -40 -5 0 -10 -13 -10 -30
0 -16 -4 -30 -10 -30 -5 0 -10 -9 -10 -20 0 -11 -4 -20 -10 -20 -5 0 -10 -13
-10 -30 0 -16 -4 -30 -10 -30 -5 0 -10 -13 -10 -30 0 -16 -4 -30 -10 -30 -5 0
-10 -9 -10 -20 0 -11 -4 -20 -10 -20 -5 0 -10 -9 -10 -20 0 -11 -4 -20 -10
-20 -5 0 -10 -8 -10 -18 0 -10 -9 -24 -20 -32 -11 -8 -20 -22 -20 -32 0 -10
-4 -18 -10 -18 -5 0 -10 -9 -10 -20 0 -11 -4 -20 -10 -20 -5 0 -10 -9 -10 -20
0 -11 -4 -20 -10 -20 -5 0 -10 -8 -10 -18 0 -10 -9 -24 -20 -32 -11 -8 -20
-21 -20 -30 0 -9 -9 -22 -20 -30 -11 -8 -20 -21 -20 -30 0 -9 -9 -22 -20 -30
-11 -8 -20 -20 -20 -28 0 -7 -31 -44 -70 -82 -38 -38 -70 -76 -70 -85 0 -8 -8
-15 -18 -15 -10 0 -24 -9 -32 -20 -8 -11 -20 -20 -28 -20 -15 0 -82 -65 -82
-80 0 -15 -25 -40 -40 -40 -7 0 -25 -13 -40 -30 -15 -16 -33 -30 -40 -30 -7 0
-25 -13 -40 -30 -15 -16 -35 -30 -44 -30 -9 0 -16 -4 -16 -10 0 -5 -9 -10 -20
-10 -11 0 -20 -4 -20 -10 0 -5 -9 -10 -20 -10 -11 0 -20 -4 -20 -10 0 -5 -13
-10 -30 -10 -16 0 -30 -4 -30 -10 0 -5 -13 -10 -30 -10 -16 0 -30 -4 -30 -10
0 -5 -22 -10 -50 -10 -27 0 -50 -4 -50 -10 0 -5 -13 -10 -30 -10 -16 0 -30 -4
-30 -10 0 -6 -70 -10 -190 -10 -120 0 -190 4 -190 10 0 6 -33 10 -80 10 -47 0
-80 4 -80 10 0 6 -18 10 -40 10 -22 0 -40 5 -40 10 0 6 -57 10 -150 10 -93 0
-150 4 -150 10 0 6 -30 10 -70 10 -40 0 -70 4 -70 10 0 6 -9 10 -20 10 -11 0
-20 5 -20 10 0 6 -13 10 -30 10 -16 0 -30 5 -30 10 0 6 -9 10 -20 10 -11 0
-20 5 -20 10 0 6 -13 10 -30 10 -16 0 -30 5 -30 10 0 6 -18 10 -40 10 -22 0
-40 5 -40 10 0 6 -13 10 -30 10 -16 0 -30 5 -30 10 0 6 -9 10 -20 10 -11 0
-20 5 -20 10 0 6 -7 10 -16 10 -8 0 -33 18 -54 40 -21 22 -44 40 -50 40 -7 0
-25 14 -40 30 -15 17 -33 30 -40 30 -7 0 -25 14 -40 30 -15 17 -33 30 -40 30
-6 0 -29 18 -50 40 -21 22 -46 40 -54 40 -9 0 -16 5 -16 10 0 6 -7 10 -15 10
-19 0 -105 84 -105 103 0 7 -9 19 -20 27 -11 8 -20 21 -20 30 0 9 -9 22 -20
30 -11 8 -20 22 -20 32 0 10 -4 18 -10 18 -5 0 -10 9 -10 20 0 11 -4 20 -10
20 -5 0 -10 9 -10 20 0 11 -4 20 -10 20 -5 0 -10 9 -10 20 0 11 -4 20 -10 20
-5 0 -10 14 -10 30 0 17 -4 30 -10 30 -5 0 -10 9 -10 20 0 11 -4 20 -10 20 -5
0 -10 9 -10 20 0 11 -4 20 -10 20 -5 0 -10 9 -10 20 0 11 -4 20 -10 20 -5 0
-10 14 -10 30 0 17 -4 30 -10 30 -5 0 -10 9 -10 20 0 11 -4 20 -10 20 -5 0
-10 8 -10 18 0 10 -9 24 -20 32 -12 8 -20 26 -20 42 0 15 -4 28 -10 28 -5 0
-10 18 -10 40 0 22 -4 40 -10 40 -5 0 -10 23 -10 50 0 28 -4 50 -10 50 -5 0
-10 9 -10 20 0 11 -4 20 -10 20 -5 0 -10 18 -10 40 0 22 -4 40 -10 40 -5 0
-10 14 -10 30 0 17 5 30 10 30 6 0 10 -4 10 -10 0 -5 9 -10 20 -10 11 0 20 -4
20 -10 0 -5 17 -10 38 -10 26 0 42 -6 52 -20 11 -15 26 -20 62 -20 26 0 48 -4
48 -10 0 -5 9 -10 20 -10 11 0 20 -4 20 -10 0 -5 17 -10 38 -10 26 0 42 -6 52
-20 8 -11 22 -20 32 -20 10 0 18 -4 18 -10 0 -5 14 -10 30 -10 17 0 30 -4 30
-10 0 -5 9 -10 20 -10 11 0 20 -4 20 -10 0 -5 18 -10 40 -10 22 0 40 -4 40
-10 0 -5 23 -10 50 -10 28 0 50 -4 50 -10 0 -5 18 -10 40 -10 22 0 40 -4 40
-10 0 -6 27 -10 60 -10 33 0 60 -4 60 -10 0 -6 33 -10 80 -10 47 0 80 -4 80
-10 0 -6 37 -10 90 -10 53 0 90 -4 90 -10 0 -6 40 -10 100 -10 60 0 100 -4
100 -10 0 -6 73 -10 200 -10 127 0 200 4 200 10 0 6 73 10 200 10 127 0 200 4
200 10 0 6 14 10 30 10 17 0 30 5 30 10 0 6 14 10 30 10 17 0 30 5 30 10 0 6
37 10 90 10 53 0 90 4 90 10 0 6 33 10 80 10 47 0 80 4 80 10 0 6 14 10 30 10
17 0 30 5 30 10 0 6 14 10 30 10 17 0 30 5 30 10 0 6 23 10 50 10 28 0 50 5
50 10 0 6 14 10 30 10 17 0 30 5 30 10 0 6 18 10 40 10 22 0 40 5 40 10 0 6
18 10 40 10 22 0 40 5 40 10 0 6 9 10 20 10 11 0 20 5 20 10 0 6 9 10 20 10
11 0 20 5 20 10 0 6 9 10 20 10 11 0 20 5 20 10 0 6 14 10 30 10 17 0 30 5 30
10 0 6 8 10 18 10 10 0 24 9 32 20 8 11 22 20 32 20 10 0 18 5 18 10 0 6 8 10
18 10 10 0 24 9 32 20 8 11 22 20 32 20 10 0 18 5 18 10 0 6 8 10 18 10 10 0
24 9 32 20 8 11 22 20 32 20 10 0 18 5 18 10 0 6 8 10 18 10 10 0 24 9 32 20
23 32 30 24 30 -40z"/>
</g>
</svg>
