<?xml version="1.0" standalone="no"?>
<!DOCTYPE svg PUBLIC "-//W3C//DTD SVG 20010904//EN"
 "http://www.w3.org/TR/2001/REC-SVG-20010904/DTD/svg10.dtd">
<svg version="1.0" xmlns="http://www.w3.org/2000/svg"
 width="870.000000pt" height="492.000000pt" viewBox="0 0 870.000000 492.000000"
 preserveAspectRatio="xMidYMid meet">
<metadata>
Created by potrace 1.16, written by Peter Selinger 2001-2019
</metadata>
<g transform="translate(0.000000,492.000000) scale(0.100000,-0.100000)"
fill="#000000" stroke="none">
<path d="M6520 4645 c0 -87 3 -105 15 -105 10 0 15 10 15 27 0 14 7 35 16 44
16 18 18 16 51 -26 20 -26 42 -45 53 -45 11 0 20 1 20 3 0 2 -18 27 -40 57
l-39 53 40 48 c58 69 22 66 -48 -3 l-53 -52 0 52 c0 40 -4 52 -15 52 -12 0
-15 -18 -15 -105z"/>
<path d="M6726 4742 c-3 -3 -6 -50 -6 -104 0 -91 1 -98 20 -98 17 0 19 8 22
70 l3 71 55 -71 c31 -40 62 -70 72 -70 16 0 18 11 18 105 0 85 -3 105 -15 105
-11 0 -15 -18 -17 -77 l-3 -76 -54 70 c-49 65 -81 90 -95 75z"/>
<path d="M7008 4733 c-44 -28 -63 -97 -38 -144 13 -24 61 -49 95 -49 34 0 82
25 95 49 14 27 12 92 -3 111 -39 50 -100 63 -149 33z m104 -43 c24 -25 29 -36
24 -58 -8 -33 -41 -62 -71 -62 -30 0 -63 29 -71 62 -5 22 0 33 24 58 17 16 38
30 47 30 9 0 30 -14 47 -30z"/>
<path d="M7190 4747 c0 -4 56 -167 65 -189 4 -10 15 -18 25 -18 13 0 22 16 35
65 10 36 21 65 24 65 3 0 15 -29 25 -65 28 -97 45 -90 90 36 20 55 36 102 36
105 0 2 -8 4 -18 4 -14 0 -25 -17 -43 -70 -13 -38 -26 -67 -29 -64 -3 3 -14
33 -25 67 -12 37 -26 62 -34 62 -9 0 -23 -25 -35 -62 -12 -34 -23 -64 -26 -67
-3 -3 -16 26 -29 64 -18 53 -29 70 -43 70 -10 0 -18 -1 -18 -3z"/>
<path d="M7520 4645 c0 -98 1 -105 20 -105 18 0 20 7 20 71 l0 71 56 -71 c34
-45 62 -71 75 -71 18 0 19 8 19 105 0 82 -3 105 -14 105 -9 0 -16 -21 -21 -72
l-7 -73 -31 40 c-45 57 -93 105 -106 105 -7 0 -11 -35 -11 -105z"/>
<path d="M7770 4644 c0 -84 3 -104 15 -104 11 0 15 17 17 71 l3 72 55 -71 c39
-51 62 -71 78 -72 22 0 23 1 20 102 -3 88 -6 103 -20 106 -15 3 -18 -7 -20
-73 l-3 -75 -53 69 c-29 38 -61 71 -72 74 -19 5 -20 0 -20 -99z"/>
<path d="M8010 4645 l0 -105 75 0 c60 0 75 3 75 15 0 12 -13 15 -55 15 -54 0
-55 0 -55 30 0 29 1 30 50 30 38 0 50 4 50 15 0 11 -12 15 -50 15 -47 0 -50 2
-50 25 0 24 3 25 56 25 47 0 55 3 52 18 -3 14 -16 18 -76 20 l-72 3 0 -106z"/>
<path d="M8222 4734 c-25 -17 -30 -65 -9 -82 7 -6 31 -17 53 -24 28 -9 39 -19
39 -33 0 -20 -12 -22 -84 -13 -13 2 -26 -2 -28 -8 -8 -24 94 -46 123 -26 6 4
16 16 22 28 17 32 -6 66 -58 84 -52 18 -65 46 -27 55 14 4 35 1 47 -5 18 -10
24 -9 31 1 19 32 -70 51 -109 23z"/>
<path d="M8401 4731 c-40 -40 -27 -71 42 -100 35 -15 48 -26 45 -38 -4 -24
-43 -28 -72 -9 -24 15 -36 12 -36 -9 0 -15 44 -35 78 -35 59 0 94 57 57 94 -9
9 -34 21 -55 27 -28 9 -40 18 -40 31 0 25 23 32 60 20 20 -8 32 -8 36 -1 10
17 -10 30 -54 36 -32 4 -44 1 -61 -16z"/>
<path d="M2670 4615 c0 -87 3 -105 15 -105 11 0 15 12 16 48 1 88 9 90 67 17
33 -40 60 -65 72 -65 19 0 20 7 20 105 0 98 -1 105 -20 105 -18 0 -20 -7 -20
-76 l0 -76 -55 70 c-46 59 -71 82 -91 82 -2 0 -4 -47 -4 -105z"/>
<path d="M3090 4615 l0 -105 75 0 c60 0 75 3 75 15 0 12 -13 15 -55 15 -54 0
-55 0 -55 30 0 29 1 30 50 30 38 0 50 4 50 15 0 11 -12 15 -50 15 -47 0 -50 2
-50 25 0 24 3 25 56 25 47 0 55 3 52 18 -3 14 -16 18 -76 20 l-72 3 0 -106z"/>
<path d="M3285 4711 c-3 -2 -5 -49 -5 -103 0 -91 1 -98 20 -98 16 0 20 7 20
35 0 30 3 35 23 35 14 0 31 -13 46 -35 13 -19 32 -35 42 -35 24 0 24 5 -2 42
l-21 29 22 24 c17 18 20 30 15 53 -3 17 -12 35 -18 40 -13 10 -134 22 -142 13z"/>
<path d="M3500 4615 l0 -105 75 0 c60 0 75 3 75 15 0 12 -13 15 -60 15 l-60 0
0 30 c0 29 1 30 50 30 38 0 50 4 50 15 0 11 -12 15 -50 15 -47 0 -50 2 -50 25
0 24 3 25 55 25 48 0 55 2 55 20 0 18 -7 20 -70 20 l-70 0 0 -105z"/>
<path d="M3701 4701 c-40 -40 -22 -79 46 -102 44 -14 56 -28 41 -46 -14 -17
-49 -16 -74 2 -22 15 -34 11 -34 -10 0 -15 44 -35 78 -35 58 0 91 52 60 92 -7
9 -30 21 -51 28 -41 13 -57 34 -39 52 8 8 21 9 47 1 23 -7 37 -8 41 -1 10 16
-11 29 -54 35 -32 4 -44 1 -61 -16z"/>
<path d="M4810 4648 c-64 -143 -63 -138 -42 -138 10 0 24 11 30 25 10 22 18
25 62 25 45 0 52 -3 60 -25 6 -15 17 -25 29 -25 18 0 15 10 -27 105 -32 73
-51 105 -63 105 -11 0 -27 -24 -49 -72z"/>
<path d="M5034 4701 c-36 -22 -58 -75 -48 -115 10 -40 59 -76 103 -76 47 0 87
26 70 46 -9 12 -14 11 -32 -1 -29 -20 -49 -19 -81 6 -71 56 10 154 91 111 17
-9 22 -9 26 2 15 39 -80 58 -129 27z"/>
<path d="M5471 4668 c12 -29 30 -77 41 -105 16 -41 26 -53 42 -53 17 0 28 17
59 94 41 103 44 119 21 114 -9 -2 -29 -36 -46 -77 l-31 -75 -14 30 c-7 16 -22
50 -33 77 -14 34 -25 47 -39 47 -21 0 -21 0 0 -52z"/>
<path d="M705 4688 c-35 -19 -55 -52 -55 -91 0 -49 13 -73 50 -92 76 -39 159
7 160 89 0 75 -90 130 -155 94z m97 -48 c24 -25 29 -36 24 -58 -18 -73 -111
-83 -137 -15 -17 46 19 100 69 102 8 1 27 -13 44 -29z"/>
<path d="M910 4594 c0 -84 3 -104 15 -104 11 0 15 17 17 72 l3 71 54 -71 c41
-53 61 -72 78 -72 23 0 24 1 21 102 -3 88 -6 103 -20 106 -15 3 -18 -7 -20
-73 l-3 -76 -54 70 c-30 38 -63 72 -73 74 -17 5 -18 -3 -18 -99z"/>
<path d="M1330 4595 l0 -105 75 0 c59 0 75 3 75 15 0 10 -15 15 -57 17 -55 3
-58 4 -61 31 -3 26 -2 27 47 27 39 0 51 4 51 15 0 11 -12 15 -50 15 -47 0 -50
2 -50 25 0 24 3 25 55 25 48 0 55 2 55 20 0 18 -7 20 -70 20 l-70 0 0 -105z"/>
<path d="M1520 4595 c0 -98 1 -105 20 -105 17 0 19 8 22 67 l3 67 53 -67 c33
-42 60 -67 72 -67 19 0 20 7 20 106 0 95 -2 105 -17 102 -15 -3 -19 -17 -23
-73 l-5 -69 -53 66 c-45 56 -69 78 -88 78 -2 0 -4 -47 -4 -105z"/>
<path d="M256 4257 c-19 -19 -40 -46 -46 -61 -7 -18 -10 -321 -10 -902 0 -957
-3 -915 59 -967 l33 -27 908 0 908 0 33 27 c62 52 59 10 59 968 0 964 3 919
-62 969 l-35 26 -906 0 -906 0 -35 -33z m1252 -916 c121 -37 155 -84 150 -211
-3 -85 8 -79 -113 -60 -38 6 -90 13 -115 16 -95 11 -90 6 -90 85 0 38 6 84 14
103 12 29 70 86 88 86 3 0 33 -8 66 -19z m-521 -40 c39 -29 63 -85 63 -146 l0
-45 -149 0 c-167 0 -161 -3 -161 79 0 51 30 104 73 128 36 22 136 12 174 -16z
m478 -275 c28 -9 97 -23 155 -31 115 -15 261 -54 318 -85 37 -19 34 -19 -723
-17 -685 2 -760 4 -763 18 -6 30 158 88 353 125 105 20 591 12 660 -10z m-855
-271 c32 -17 36 -25 19 -42 -8 -8 -19 -6 -40 4 -83 41 -159 -58 -94 -122 26
-27 82 -34 102 -14 13 13 43 5 43 -10 0 -18 -57 -41 -101 -41 -33 0 -47 6 -75
34 -28 28 -34 42 -34 75 0 55 21 94 62 114 42 21 81 21 118 2z m233 1 c45 -18
67 -56 67 -112 0 -39 -5 -51 -34 -80 -30 -30 -40 -34 -84 -34 -44 0 -55 5 -86
34 -30 28 -36 40 -36 75 0 55 21 94 62 114 41 20 69 21 111 3z m218 -67 l35
-70 34 70 c32 67 36 71 67 71 l33 0 0 -115 0 -115 -25 0 c-25 0 -25 1 -26 83
l0 82 -37 -72 c-20 -40 -42 -73 -49 -73 -7 0 -31 35 -52 78 l-40 77 -1 -87 c0
-81 -2 -88 -20 -88 -19 0 -20 7 -20 115 l0 115 33 0 c31 0 35 -5 68 -71z m397
54 c-3 -15 -16 -19 -66 -21 -58 -3 -62 -4 -62 -27 0 -24 3 -25 55 -25 48 0 55
-2 55 -20 0 -18 -7 -20 -55 -20 -54 0 -55 0 -55 -30 l0 -30 65 0 c58 0 65 -2
65 -20 0 -18 -7 -20 -85 -20 l-85 0 0 115 0 115 86 0 c76 0 85 -2 82 -17z
m222 -10 c59 -53 48 -153 -20 -188 -16 -8 -55 -15 -90 -15 l-60 0 0 115 0 115
70 0 c62 0 73 -3 100 -27z m128 -18 c15 -25 30 -45 33 -45 4 0 19 20 33 45 17
29 34 45 46 45 11 0 20 -3 20 -6 0 -4 -18 -35 -40 -70 -31 -50 -40 -73 -40
-109 0 -38 -3 -45 -20 -45 -17 0 -20 7 -20 46 0 37 -8 60 -40 110 -22 35 -40
66 -40 69 0 3 9 5 20 5 14 0 30 -15 48 -45z"/>
<path d="M735 2705 c-74 -73 34 -186 110 -115 52 49 16 140 -55 140 -19 0 -40
-9 -55 -25z"/>
<path d="M1563 2723 c-9 -3 -13 -29 -13 -79 l0 -74 39 0 c54 0 85 27 85 74 0
23 -7 43 -19 55 -21 19 -71 32 -92 24z"/>
<path d="M2356 4257 c-19 -19 -40 -46 -46 -61 -7 -18 -10 -321 -10 -902 0
-957 -3 -915 59 -967 l33 -27 908 0 908 0 33 27 c62 52 59 10 59 969 0 970 4
917 -65 970 l-32 24 -906 0 -906 0 -35 -33z m1777 -66 c14 -6 35 -20 46 -32
21 -23 21 -27 21 -646 l0 -623 -900 0 -900 0 0 623 c1 498 3 625 14 639 37 49
15 48 883 48 482 0 822 -4 836 -9z m-1189 -1446 c60 -29 83 -103 51 -165 -19
-38 -63 -60 -116 -60 -33 0 -47 6 -75 34 -19 19 -34 45 -35 58 -4 74 15 112
64 133 42 19 72 18 111 0z m896 -10 c15 -13 17 -21 9 -31 -8 -10 -15 -9 -37 2
-60 31 -122 -1 -122 -64 0 -65 63 -102 122 -71 15 8 23 8 32 -1 18 -19 -29
-50 -76 -50 -53 0 -92 22 -112 64 -20 42 -20 57 -2 101 29 69 134 97 186 50z
m185 13 c27 -12 31 -47 4 -39 -8 3 -30 5 -49 5 -29 1 -36 -3 -38 -21 -3 -18 4
-24 40 -33 24 -7 51 -19 61 -27 25 -23 22 -78 -5 -97 -29 -21 -91 -20 -130 0
-27 14 -29 17 -15 31 12 12 19 13 36 3 33 -17 86 -9 86 14 0 13 -15 24 -50 37
-78 30 -96 69 -50 114 27 28 68 32 110 13z m-1315 -18 c13 -13 20 -33 20 -58
0 -57 -18 -74 -84 -80 l-56 -4 0 -34 c0 -27 -4 -34 -20 -34 -19 0 -20 7 -20
115 l0 115 70 0 c57 0 74 -4 90 -20z"/>
<path d="M2454 3997 c-2 -7 -3 -60 -2 -118 l3 -104 103 -3 c85 -2 103 0 108
13 5 13 79 15 634 15 549 0 629 -2 634 -15 4 -12 25 -15 100 -15 52 0 101 3
110 6 13 5 16 24 16 108 0 66 -4 106 -12 114 -8 8 -47 12 -110 12 -78 0 -100
-3 -104 -15 -5 -13 -85 -15 -634 -15 -549 0 -629 2 -634 15 -7 20 -204 22
-212 2z"/>
<path d="M2454 3717 c-2 -7 -3 -60 -2 -118 l3 -104 103 -3 c85 -2 103 0 108
13 5 13 79 15 634 15 549 0 629 -2 634 -15 4 -12 26 -15 104 -15 63 0 102 4
110 12 8 8 12 47 12 108 0 61 -4 100 -12 108 -8 8 -47 12 -110 12 -78 0 -100
-3 -104 -15 -5 -13 -85 -15 -634 -15 -549 0 -629 2 -634 15 -7 20 -204 22
-212 2z m206 -82 l0 -75 -100 0 -100 0 0 75 0 75 100 0 100 0 0 -75z m560 -25
l0 -80 -275 0 -275 0 0 80 0 80 275 0 275 0 0 -80z"/>
<path d="M2450 3335 l0 -115 110 0 c67 0 110 4 110 10 0 7 217 10 630 10 427
0 630 -3 630 -10 0 -7 40 -10 113 -8 l112 3 0 110 0 110 -108 3 c-89 2 -108 0
-113 -13 -5 -13 -40 -15 -250 -15 l-244 0 0 -85 0 -85 -385 0 -384 0 -3 98 -3
97 -107 3 -108 3 0 -116z m208 23 l3 -78 -36 0 c-26 0 -35 4 -36 18 -1 21 -37
102 -38 85 -1 -7 -9 -13 -18 -13 -13 0 -14 -3 -5 -12 7 -7 12 -17 12 -22 0 -6
-7 0 -16 13 -9 13 -16 34 -16 47 0 13 -4 27 -9 29 -14 9 -19 -13 -9 -40 6 -15
13 -45 15 -66 5 -36 3 -39 -20 -39 -25 0 -25 1 -25 80 l0 81 98 -3 97 -3 3
-77z"/>
<path d="M2450 3055 l0 -115 110 0 c67 0 110 4 110 10 0 7 217 10 630 10 427
0 630 -3 630 -10 0 -7 40 -10 113 -8 l112 3 0 110 0 110 -104 3 c-63 2 -108
-1 -115 -8 -14 -14 -1262 -14 -1271 0 -3 6 -52 10 -111 10 l-104 0 0 -115z
m208 28 l3 -73 -31 0 -30 0 0 60 0 60 -62 0 -63 0 3 -60 c3 -39 0 -60 -7 -60
-12 0 -16 132 -4 144 4 4 48 5 98 4 l90 -3 3 -72z m392 -28 l0 -85 -190 0
-190 0 0 85 0 85 190 0 190 0 0 -85z"/>
<path d="M2835 2695 c-34 -33 -34 -83 0 -115 34 -32 83 -30 113 5 66 77 -41
182 -113 110z"/>
<path d="M4461 4263 c-64 -50 -61 -6 -61 -968 0 -958 -3 -916 59 -968 l33 -27
908 0 908 0 33 27 c62 52 59 10 59 969 0 970 4 917 -65 970 l-32 24 -904 0
-904 0 -34 -27z m1772 -72 c14 -6 35 -20 46 -32 21 -23 21 -27 21 -646 l0
-623 -900 0 -900 0 0 623 c1 498 3 625 14 639 37 49 15 48 883 48 482 0 822
-4 836 -9z m-603 -1406 c0 -3 -21 -28 -46 -55 l-47 -50 40 -52 c57 -77 58 -78
29 -78 -18 0 -34 14 -62 51 l-38 52 -18 -23 c-10 -12 -18 -35 -18 -51 0 -22
-5 -29 -20 -29 -19 0 -20 7 -20 115 0 108 1 115 20 115 17 0 20 -7 20 -52 l0
-52 53 51 c28 28 59 53 67 56 20 7 40 8 40 2z m-660 -78 c0 -84 16 -117 57
-117 49 0 63 24 63 112 0 71 2 78 20 78 18 0 20 -7 20 -86 0 -81 -1 -87 -29
-115 -39 -38 -97 -40 -138 -5 -26 23 -28 30 -31 115 -4 87 -3 91 17 91 19 0
21 -6 21 -73z m377 65 c13 -8 33 -55 33 -78 0 -8 -11 -26 -24 -39 l-24 -24 29
-41 29 -40 -27 0 c-21 0 -35 10 -56 40 -20 28 -36 40 -53 40 -21 0 -24 -4 -24
-40 0 -33 -3 -40 -20 -40 -19 0 -20 7 -20 115 l0 115 73 0 c39 0 77 -4 84 -8z
m483 -12 c0 -18 -7 -20 -60 -20 -57 0 -60 -1 -60 -25 0 -24 3 -25 55 -25 48 0
55 -2 55 -20 0 -18 -7 -20 -55 -20 -54 0 -55 0 -55 -30 l0 -30 65 0 c58 0 65
-2 65 -20 0 -18 -7 -20 -85 -20 l-85 0 0 115 0 115 80 0 c73 0 80 -2 80 -20z
m218 4 c30 -20 31 -85 2 -114 -20 -20 -20 -21 -2 -48 34 -50 35 -52 8 -52 -19
0 -33 11 -52 40 -19 28 -34 40 -50 40 -21 0 -24 -5 -24 -40 0 -33 -3 -40 -20
-40 -19 0 -20 7 -20 115 l0 115 68 0 c45 0 75 -5 90 -16z"/>
<path d="M5648 4033 c-68 -3 -79 -7 -97 -29 -27 -35 -40 -108 -43 -249 -3
-131 18 -257 50 -300 9 -13 42 -35 72 -49 51 -23 201 -56 256 -56 41 0 30 -33
-16 -48 -22 -6 -45 -12 -53 -12 -19 0 -85 -58 -101 -89 -19 -35 -30 -112 -21
-149 4 -20 15 -34 34 -42 32 -13 187 -9 266 8 28 5 83 15 123 22 69 11 75 14
99 51 21 32 24 45 18 76 -8 44 -69 106 -120 123 -30 10 -33 14 -38 66 -8 78 1
119 29 135 13 6 26 20 30 31 3 10 10 18 15 18 5 0 9 6 9 13 0 7 18 21 40 31
l40 17 0 67 c0 37 -3 90 -6 118 l-7 52 -45 6 c-57 8 -82 29 -82 72 0 49 -9 64
-40 64 -15 0 -34 7 -41 17 -35 42 -96 48 -371 36z m333 -35 c51 -33 81 -253
59 -435 -12 -102 -15 -110 -46 -140 -48 -45 -95 -58 -158 -45 -28 6 -79 16
-113 22 -82 14 -139 44 -160 85 -6 11 -19 60 -28 109 -28 140 -11 347 33 398
11 13 35 18 106 21 177 7 281 3 307 -15z m110 -101 c5 -49 19 -67 52 -67 10 0
31 -7 46 -15 27 -13 29 -19 35 -100 8 -96 2 -107 -57 -119 -18 -4 -31 -15 -38
-33 -14 -38 -38 -63 -61 -63 -18 0 -19 5 -11 58 12 87 7 260 -10 330 l-16 63
27 -3 c24 -3 28 -8 33 -51z m-31 -517 c0 -49 4 -99 9 -112 5 -13 12 -36 16
-51 3 -17 18 -35 38 -47 38 -24 47 -25 47 -6 0 8 -16 20 -35 26 -23 8 -35 18
-35 30 0 10 -3 25 -6 34 -10 27 20 18 69 -20 55 -43 69 -86 42 -127 -21 -32
-61 -46 -162 -56 -44 -5 -88 -13 -100 -20 -12 -6 -60 -11 -107 -11 -75 0 -88
3 -112 24 -27 23 -28 24 -15 78 16 74 59 122 131 148 30 11 59 20 63 20 11 0
-2 -60 -16 -78 -13 -16 -90 -52 -111 -52 -9 0 -16 -4 -16 -10 0 -17 44 -11 90
13 53 26 72 60 78 140 2 31 9 57 14 57 11 0 69 40 85 60 7 8 13 23 13 33 0 9
5 17 10 17 6 0 10 -37 10 -90z"/>
<path d="M5598 3963 c-47 -49 -61 -220 -27 -337 6 -22 28 -57 50 -79 l38 -40
117 -5 c148 -6 174 4 203 84 18 46 20 68 14 171 -7 134 -17 163 -71 197 -33
20 -55 25 -167 31 l-130 7 -27 -29z"/>
<path d="M4950 3913 c-8 -2 -29 -11 -47 -19 -17 -8 -35 -14 -41 -14 -24 0
-202 -200 -202 -228 0 -5 -3 -12 -7 -14 -17 -7 -62 -129 -83 -223 -13 -55 -12
-282 0 -327 12 -41 55 -82 115 -108 115 -51 373 -75 480 -45 154 43 205 74
253 154 27 45 27 48 26 211 0 169 -11 244 -56 386 -16 52 -31 74 -96 141 -56
59 -86 82 -111 87 -39 7 -209 7 -231 -1z m439 -632 c1 -107 -13 -146 -72 -192
-27 -22 -59 -39 -71 -39 -12 0 -26 -4 -31 -9 -15 -13 -160 -41 -214 -40 -25 0
-84 9 -131 20 -47 11 -101 24 -120 28 -55 13 -80 23 -80 32 0 5 -6 9 -13 9
-22 0 -37 46 -37 110 l0 60 95 0 c52 0 114 4 137 9 24 5 86 17 138 26 133 24
223 45 310 75 74 25 75 25 82 5 3 -11 6 -53 7 -94z"/>
<path d="M6561 4263 c-64 -50 -61 -6 -61 -968 0 -958 -3 -916 59 -968 l33 -27
908 0 908 0 33 27 c62 52 59 10 59 969 0 970 4 917 -65 970 l-32 24 -904 0
-904 0 -34 -27z m1772 -72 c14 -6 35 -20 46 -32 21 -23 21 -27 21 -646 l0
-623 -900 0 -900 0 0 623 c1 498 3 625 14 639 37 49 15 48 883 48 482 0 822
-4 836 -9z m-1179 -1378 l28 -58 29 58 c24 46 34 57 54 57 25 0 25 0 25 -95 0
-88 -1 -95 -20 -95 -18 0 -20 7 -21 63 l0 62 -27 -52 c-14 -29 -32 -53 -38
-53 -7 0 -26 24 -43 53 l-31 52 0 -62 c0 -56 -2 -63 -20 -63 -19 0 -20 7 -20
95 l0 95 28 0 c24 0 32 -8 56 -57z m337 28 c63 -63 20 -161 -70 -161 -55 0
-91 38 -91 95 0 86 100 127 161 66z m189 16 c32 -16 39 -68 12 -94 -18 -18
-18 -19 6 -50 l24 -33 -24 0 c-16 0 -30 10 -41 30 -12 20 -26 30 -43 30 -20 0
-24 -5 -24 -30 0 -20 -5 -30 -15 -30 -12 0 -15 17 -15 95 l0 95 48 0 c26 0 58
-6 72 -13z m210 -2 c0 -11 -12 -15 -50 -15 -47 0 -50 -2 -50 -25 0 -23 4 -25
45 -25 33 0 45 -4 45 -15 0 -11 -12 -15 -45 -15 -41 0 -45 -2 -45 -25 0 -23 3
-25 50 -25 38 0 50 -4 50 -15 0 -12 -14 -15 -70 -15 l-70 0 0 95 0 95 70 0
c56 0 70 -3 70 -15z m-920 -357 l0 -42 44 43 c25 24 51 41 61 39 13 -2 10 -11
-19 -44 l-36 -42 35 -45 c40 -53 42 -57 16 -57 -10 0 -30 18 -46 40 -22 32
-31 38 -41 29 -8 -6 -14 -24 -14 -40 0 -22 -5 -29 -20 -29 -19 0 -20 7 -20 95
0 88 1 95 20 95 17 0 20 -7 20 -42z m236 -23 l49 -66 3 66 c3 57 5 65 22 65
18 0 20 -7 20 -96 0 -93 -1 -95 -22 -92 -13 2 -42 27 -68 60 l-45 57 -3 -60
c-3 -51 -6 -59 -22 -59 -18 0 -20 7 -20 95 0 85 2 95 18 95 11 0 39 -27 68
-65z m295 36 c21 -22 29 -39 29 -66 0 -107 -157 -131 -190 -30 -32 96 89 167
161 96z m104 -41 l22 -65 20 65 c26 88 46 91 69 11 9 -33 20 -58 25 -55 4 2
16 29 25 59 13 42 22 55 37 55 11 0 17 -5 15 -12 -3 -7 -18 -50 -34 -95 -37
-105 -55 -110 -82 -20 l-18 62 -21 -60 c-29 -88 -49 -83 -85 25 -33 98 -33
102 -11 98 10 -2 24 -27 38 -68z m327 3 l53 -67 3 67 c2 51 6 67 17 67 12 0
15 -19 15 -95 0 -86 -2 -95 -19 -95 -10 0 -38 26 -67 62 l-49 63 -3 -63 c-2
-46 -7 -62 -17 -62 -12 0 -15 19 -15 95 0 118 8 120 82 28z"/>
<path d="M7335 4075 c-27 -8 -60 -14 -73 -15 -13 0 -60 -18 -105 -40 -104 -52
-117 -60 -140 -88 -10 -12 -25 -28 -32 -35 -27 -28 -86 -160 -99 -225 -47
-231 -21 -349 108 -476 108 -107 228 -151 446 -162 103 -6 126 -4 220 20 127
31 231 80 285 133 117 114 166 339 114 517 -39 132 -127 258 -210 298 -68 33
-165 67 -223 77 -81 15 -230 13 -291 -4z m488 -112 l52 -26 -29 -8 c-16 -5
-107 -11 -202 -15 l-173 -7 -11 27 c-5 15 -10 31 -10 36 0 9 63 13 243 18 67
2 85 -2 130 -25z m129 -130 c24 -29 28 -51 11 -57 -45 -18 -447 -44 -455 -30
-3 5 -9 24 -13 42 l-7 32 144 1 c115 0 211 9 299 28 3 0 13 -7 21 -16z m-887
-354 c28 -5 91 -13 142 -16 71 -5 97 -10 113 -25 11 -11 37 -25 58 -33 45 -17
31 -18 -78 -5 -47 5 -137 14 -200 20 -158 15 -190 24 -190 56 0 24 2 25 53 19
28 -4 75 -11 102 -16z m0 -140 c155 -30 647 -35 841 -8 42 6 78 8 81 6 2 -3
-3 -19 -11 -35 -13 -25 -25 -32 -63 -39 -78 -13 -686 -9 -788 5 -160 23 -154
21 -170 52 -8 16 -15 32 -15 35 0 6 35 2 125 -16z m220 -170 c122 -11 496 -6
555 6 31 7 -83 -49 -131 -64 -46 -14 -282 -14 -426 0 -103 11 -119 15 -166 46
l-52 34 45 -5 c25 -3 104 -11 175 -17z"/>
<path d="M256 2157 c-19 -19 -40 -46 -46 -61 -7 -18 -10 -321 -10 -902 0 -957
-3 -915 59 -967 l33 -27 908 0 908 0 33 27 c62 52 59 10 59 969 0 970 4 917
-65 970 l-32 24 -906 0 -906 0 -35 -33z m839 -676 c33 -24 101 -75 151 -113
50 -38 100 -68 113 -68 20 0 22 -3 16 -27 -4 -16 -8 -35 -9 -43 -1 -8 102
-110 228 -225 188 -172 226 -211 207 -213 -23 -4 -28 1 -339 286 -68 62 -127
110 -131 108 -4 -3 -32 -21 -60 -41 -57 -38 -81 -44 -81 -20 0 13 -82 111
-227 274 -39 43 -40 53 -11 66 13 6 32 24 43 41 11 18 25 29 30 26 6 -3 37
-26 70 -51z m-42 -909 c15 -33 38 -84 52 -115 l25 -57 -24 0 c-15 0 -27 9 -34
25 -10 23 -17 25 -72 25 -55 0 -60 -2 -66 -25 -4 -18 -13 -25 -30 -25 -13 0
-24 2 -24 4 0 2 16 39 36 82 20 44 42 94 49 112 10 23 20 32 38 32 20 0 29
-11 50 -58z m271 39 c26 -29 24 -91 -4 -113 l-21 -17 25 -34 c32 -42 32 -47 2
-47 -16 0 -31 12 -50 40 -19 29 -33 40 -51 40 -22 0 -25 -4 -25 -40 0 -33 -3
-40 -20 -40 -19 0 -20 7 -20 115 l0 115 73 0 c60 0 77 -4 91 -19z"/>
<path d="M2356 2157 c-19 -19 -40 -46 -46 -61 -7 -18 -10 -321 -10 -902 0
-957 -3 -915 59 -967 l33 -27 908 0 908 0 33 27 c62 52 59 10 59 969 0 970 4
917 -65 970 l-32 24 -906 0 -906 0 -35 -33z m1777 -66 c14 -6 35 -20 46 -32
21 -23 21 -27 21 -646 l0 -623 -515 0 -515 0 0 64 0 63 83 6 c130 9 364 93
422 151 34 34 33 78 -1 105 -43 34 -110 28 -213 -18 -112 -51 -183 -71 -246
-71 l-51 0 -10 43 -9 42 -125 42 c-69 23 -148 51 -177 61 l-52 19 -21 -22
c-31 -33 -50 -141 -57 -322 l-6 -163 -153 0 -154 0 0 623 c1 498 3 625 14 639
37 49 15 48 883 48 482 0 822 -4 836 -9z m-1638 -1443 c27 -12 31 -47 4 -39
-8 3 -31 5 -53 5 -77 2 -100 -89 -32 -122 22 -11 33 -11 57 -1 40 16 61 -2 28
-25 -55 -38 -140 -7 -158 59 -24 90 66 163 154 123z m208 1 c38 -19 57 -51 57
-97 0 -63 -40 -102 -105 -102 -64 0 -105 39 -105 100 0 23 5 50 10 60 23 42
97 62 143 39z m189 -53 l31 -64 30 64 c27 57 33 64 59 64 l28 0 0 -105 c0 -98
-1 -105 -20 -105 -18 0 -20 7 -21 73 l0 72 -32 -62 c-17 -35 -37 -63 -44 -63
-7 0 -28 30 -47 68 l-35 67 -1 -77 c0 -71 -2 -78 -20 -78 -19 0 -20 7 -20 98
0 54 3 102 7 105 3 4 17 7 30 7 19 0 29 -13 55 -64z m283 4 c16 -33 32 -60 35
-60 3 0 19 27 35 60 25 52 32 60 57 60 l28 0 0 -105 c0 -98 -1 -105 -20 -105
-17 0 -19 8 -22 72 l-3 72 -33 -62 c-19 -35 -39 -61 -45 -59 -6 2 -26 30 -44
63 l-33 59 0 -72 c0 -66 -2 -73 -20 -73 -19 0 -20 7 -20 105 l0 105 28 0 c25
0 32 -8 57 -60z m245 -23 c5 -79 14 -97 52 -97 31 0 48 40 48 113 0 60 2 68
18 65 14 -3 17 -15 16 -81 -1 -67 -5 -82 -24 -103 -32 -33 -92 -33 -125 1 -22
22 -25 32 -25 105 0 72 2 81 18 78 14 -3 18 -17 22 -81z m280 7 l60 -75 0 75
c0 69 2 76 20 76 19 0 20 -7 20 -105 0 -102 -1 -105 -22 -105 -16 1 -39 22
-78 72 l-55 71 -3 -72 c-2 -54 -6 -71 -17 -71 -12 0 -15 20 -15 105 0 131 7
133 90 29z"/>
<path d="M3027 1830 c-144 -36 -220 -166 -167 -287 37 -86 78 -116 210 -152
139 -37 200 -41 200 -11 0 11 16 35 37 53 98 86 96 224 -3 319 -70 67 -188
100 -277 78z"/>
<path d="M3700 1434 c-103 -37 -143 -102 -85 -140 31 -20 173 -16 220 7 58 28
72 104 25 129 -36 19 -112 21 -160 4z"/>
<path d="M2617 610 c-34 -27 -41 -53 -23 -88 36 -70 126 -47 126 32 0 25 -7
40 -26 55 -33 26 -45 26 -77 1z"/>
<path d="M4461 2163 c-64 -50 -61 -6 -61 -968 0 -958 -3 -916 59 -968 l33 -27
908 0 908 0 33 27 c62 52 59 10 59 969 0 970 4 917 -65 970 l-32 24 -904 0
-904 0 -34 -27z m1805 -488 c-42 -38 -40 -59 5 -53 l29 5 0 -103 0 -102 -27
-7 c-15 -3 -60 -22 -100 -41 -99 -46 -143 -46 -90 1 33 28 117 133 117 145 0
10 -14 14 -37 11 -10 -1 -10 5 -3 24 6 15 10 31 10 36 0 13 -77 11 -101 -2
-19 -10 -20 -9 -9 10 28 53 -19 54 -108 3 -52 -30 -83 -40 -131 -45 -53 -4
-60 -3 -45 8 44 30 206 99 271 115 29 7 31 6 20 -11 -20 -32 0 -32 65 1 54 28
153 53 167 43 3 -2 -12 -19 -33 -38z m-257 -96 c-18 -34 2 -41 59 -23 59 19
76 13 44 -16 -12 -12 -22 -30 -22 -41 0 -18 4 -20 27 -14 24 6 25 5 13 -12 -8
-10 -34 -39 -59 -65 -44 -46 -47 -48 -101 -48 l-55 1 40 21 c65 34 69 58 9 58
-38 0 -42 7 -16 26 14 11 15 16 4 33 -11 19 -10 21 13 21 16 0 25 6 25 15 0
10 -10 15 -32 15 l-33 0 40 24 c50 30 59 31 44 5z m-1443 -84 c46 -5 137 -17
159 -21 6 -1 18 -2 28 -3 14 -1 17 -11 17 -61 0 -68 -20 -117 -68 -165 -37
-37 -115 -63 -137 -45 -8 7 -26 10 -40 8 l-25 -5 0 154 c0 85 4 152 8 149 5
-3 31 -8 58 -11z m354 -49 c139 -35 264 -113 332 -207 l27 -37 -80 5 c-70 5
-85 3 -127 -18 -59 -30 -112 -81 -112 -107 0 -12 -4 -24 -10 -27 -5 -3 -10
-14 -10 -24 0 -38 -41 -60 -120 -63 l-74 -3 -23 -40 c-15 -26 -23 -57 -23 -87
l0 -48 -100 0 -100 0 0 173 c0 151 3 175 19 196 12 16 21 20 25 12 10 -15 62
-14 111 3 78 27 155 145 155 237 0 47 1 49 28 49 15 0 52 -7 82 -14z m309
-272 c61 -7 62 -7 82 -51 15 -34 21 -74 26 -188 l6 -145 -306 0 -307 0 1 43
c0 23 8 56 18 72 17 28 22 30 94 35 88 6 105 18 138 102 25 65 41 84 99 114
50 26 60 27 149 18z m-135 -509 c60 -29 83 -103 51 -165 -19 -38 -63 -60 -116
-60 -33 0 -47 6 -75 34 -19 19 -34 45 -35 58 -4 74 15 112 64 133 42 19 72 18
111 0z m235 4 c22 -8 31 -17 28 -28 -2 -9 -10 -14 -18 -12 -58 14 -86 13 -93
-5 -8 -20 16 -44 43 -44 9 0 31 -9 49 -20 38 -24 44 -68 12 -100 -25 -25 -88
-27 -132 -4 -27 14 -29 17 -15 31 12 12 19 13 36 3 34 -18 86 -9 86 14 0 14
-13 24 -46 35 -26 9 -54 22 -63 30 -25 21 -20 66 10 90 30 24 56 26 103 10z
m-469 -19 c13 -13 20 -33 20 -58 0 -57 -18 -74 -84 -80 l-56 -4 0 -34 c0 -27
-4 -34 -20 -34 -19 0 -20 7 -20 115 l0 115 70 0 c57 0 74 -4 90 -20z m928 3
c-3 -15 -16 -19 -66 -21 -58 -3 -62 -4 -62 -27 0 -24 3 -25 55 -25 48 0 55 -2
55 -20 0 -18 -7 -20 -55 -20 -54 0 -55 0 -55 -30 l0 -30 65 0 c58 0 65 -2 65
-20 0 -18 -7 -20 -85 -20 l-85 0 0 115 0 115 86 0 c76 0 85 -2 82 -17z m216
-2 c26 -29 24 -91 -4 -113 l-21 -17 25 -34 c32 -42 32 -47 2 -47 -16 0 -31 12
-50 40 -19 29 -33 40 -51 40 -22 0 -25 -4 -25 -40 0 -33 -3 -40 -20 -40 -19 0
-20 7 -20 115 l0 115 73 0 c60 0 77 -4 91 -19z"/>
<path d="M4985 615 c-34 -33 -34 -83 0 -115 34 -32 83 -30 113 5 66 77 -41
182 -113 110z"/>
<path d="M6561 2163 c-64 -50 -61 -6 -61 -968 0 -958 -3 -916 59 -968 l33 -27
908 0 908 0 33 27 c62 52 59 10 59 969 0 970 4 917 -65 970 l-32 24 -904 0
-904 0 -34 -27z m1114 -164 c42 -5 90 -18 108 -28 18 -10 55 -24 82 -30 56
-14 85 -41 116 -110 28 -65 59 -195 66 -281 l6 -75 -199 7 c-110 4 -209 8
-222 9 -20 1 -22 5 -18 28 6 30 -15 60 -56 78 -40 18 -79 0 -111 -50 l-27 -42
2 245 3 245 35 6 c57 10 134 10 215 -2z m-109 -434 c29 -22 33 -30 27 -58 -7
-41 -39 -67 -83 -67 -63 0 -73 70 -17 126 29 29 34 29 73 -1z m344 -828 c32
-16 39 -68 12 -94 -18 -18 -18 -19 6 -50 l24 -33 -24 0 c-16 0 -30 10 -41 30
-12 20 -26 30 -43 30 -20 0 -24 -5 -24 -30 0 -20 -5 -30 -15 -30 -12 0 -15 17
-15 95 l0 95 48 0 c26 0 58 -6 72 -13z m-910 -359 l0 -42 44 43 c25 24 51 41
61 39 13 -2 10 -11 -19 -44 l-36 -42 35 -45 c40 -53 42 -57 16 -57 -10 0 -30
18 -46 40 -22 32 -31 38 -41 29 -8 -6 -14 -24 -14 -40 0 -22 -5 -29 -20 -29
-19 0 -20 7 -20 95 0 88 1 95 20 95 17 0 20 -7 20 -42z m236 -23 l49 -66 3 66
c3 57 5 65 22 65 18 0 20 -7 20 -96 0 -93 -1 -95 -22 -92 -13 2 -42 27 -68 60
l-45 57 -3 -60 c-3 -51 -6 -59 -22 -59 -18 0 -20 7 -20 95 0 85 2 95 18 95 11
0 39 -27 68 -65z m295 36 c21 -22 29 -39 29 -66 0 -107 -157 -131 -190 -30
-32 96 89 167 161 96z m104 -41 l22 -65 20 65 c26 88 46 91 69 11 9 -33 20
-58 25 -55 4 2 16 29 25 59 13 42 22 55 37 55 11 0 17 -5 15 -12 -3 -7 -18
-50 -34 -95 -37 -105 -55 -110 -82 -20 l-18 62 -21 -60 c-29 -88 -49 -83 -85
25 -33 98 -33 102 -11 98 10 -2 24 -27 38 -68z m327 3 l53 -67 3 67 c2 51 6
67 17 67 12 0 15 -19 15 -95 0 -86 -2 -95 -19 -95 -10 0 -38 26 -67 62 l-49
63 -3 -63 c-2 -46 -7 -62 -17 -62 -12 0 -15 19 -15 95 0 118 8 120 82 28z"/>
</g>
</svg>
